Coordinates
version=1
nRows=9
nColumns=24
inDegrees=yes

Units are S.I. units (second, meters, Newtons, ...)
Angles are in degrees.

endheader
time	pelvis_tilt	pelvis_list	pelvis_rotation	pelvis_tx	pelvis_ty	pelvis_tz	hip_flexion_r	hip_adduction_r	hip_rotation_r	knee_angle_r	ankle_angle_r	subtalar_angle_r	mtp_angle_r	hip_flexion_l	hip_adduction_l	hip_rotation_l	knee_angle_l	ankle_angle_l	subtalar_angle_l	mtp_angle_l	lumbar_extension	lumbar_bending	lumbar_rotation
      0.70500000	     -7.29508745	      0.62170796	      3.14700002	     -0.41822935	      1.06050963	      0.27439921	     18.96903827	      2.61550734	     -2.03449774	    -23.34738739	     11.87134538	     -7.60101961	      2.89220427	     27.25356589	     -3.51140711	     -5.21158610	    -71.13913981	      9.02880539	      5.78135904	      0.97530504	     -7.68843672	      2.15967290	      0.25831932
      0.70916667	     -7.21898835	      0.72428241	      3.05351968	     -0.41307998	      1.06167474	      0.27466631	     18.38659620	      2.55892767	     -1.95138230	    -22.94503559	     11.93668565	     -7.50759417	      2.85063671	     27.60845839	     -3.41620577	     -5.36022060	    -70.48671362	      9.29245973	      6.05404120	      0.94480856	     -7.83773839	      2.00948393	      0.55418683
      0.71333333	     -7.18407496	      0.84417943	      2.94635798	     -0.40792970	      1.06273458	      0.27493675	     17.85845984	      2.47999294	     -1.87143024	    -22.55832773	     11.95487627	     -7.41771418	      2.82779137	     27.98688800	     -3.30441451	     -5.53252153	    -69.77610168	      9.54671593	      6.30275063	      0.93178184	     -7.92262190	      1.84179183	      0.70296776
      0.71750000	     -7.11743940	      0.94457499	      2.83771371	     -0.40276993	      1.06380232	      0.27521906	     17.28722118	      2.42328517	     -1.79388973	    -22.15170522	     12.00541334	     -7.32845257	      2.79606269	     28.31975044	     -3.22321507	     -5.71130990	    -69.02396725	      9.78667553	      6.52552159	      0.90974341	     -8.04170034	      1.67430539	      0.95954816
      0.72166667	     -7.07678797	      1.04674828	      2.71764589	     -0.39760453	      1.06479126	      0.27548816	     16.74937897	      2.36227048	     -1.70854492	    -21.75320487	     12.03194366	     -7.23641884	      2.76688643	     28.66025897	     -3.13773863	     -5.89719909	    -68.21585229	     10.01657874	      6.73129972	      0.88985088	     -8.12752136	      1.51368884	      1.17906490
      0.72583333	     -7.03968391	      1.14518180	      2.59127266	     -0.39244870	      1.06571364	      0.27576612	     16.21903217	      2.30400037	     -1.62291178	    -21.35916303	     12.06243766	     -7.14112351	      2.74056207	     28.99056369	     -3.06016038	     -6.08989102	    -67.36394792	     10.23682251	      6.92004617	      0.87144460	     -8.20887988	      1.36006055	      1.39500370
      0.73000000	     -6.99900324	      1.24143102	      2.45981488	     -0.38729263	      1.06661357	      0.27603014	     15.68467751	      2.24616027	     -1.53470802	    -20.96157393	     12.08744691	     -7.04666031	      2.71716412	     29.29824301	     -2.98313470	     -6.28277362	    -66.45838244	     10.44121668	      7.07906109	      0.85392956	     -8.29318274	      1.20931029	      1.60590508
      0.73416667	     -6.97661999	      1.35003029	      2.31692499	     -0.38213485	      1.06744390	      0.27629207	     15.17843308	      2.17123714	     -1.44276374	    -20.57951574	     12.08738587	     -6.93613141	      2.70360685	     29.60275083	     -2.89389934	     -6.48764122	    -65.49592861	     10.63188064	      7.21324880	      0.84380213	     -8.35599591	      1.05392361	      1.75661132
      0.73833333	     -6.93802299	      1.42560321	      2.18470333	     -0.37698781	      1.06821973	      0.27653867	     14.64798598	      2.13063517	     -1.35785376	    -20.18113751	     12.14967135	     -6.83969061	      2.68123323	     29.88610270	     -2.83634405	     -6.66986612	    -64.50742057	     10.80789063	      7.33077889	      0.82253080	     -8.44194188	      0.91536026	      2.05519022
